<?xml version="1.0" encoding="UTF-8"?>
<svg xmlns="http://www.w3.org/2000/svg" xmlns:xlink="http://www.w3.org/1999/xlink" width="34pt" height="34pt" viewBox="0 0 34 34" version="1.1">
<g id="surface1">
<path style=" stroke:none;fill-rule:nonzero;fill:rgb(65.098039%,80.784314%,22.352941%);fill-opacity:1;" d="M 34 17 C 34 26.390625 26.390625 34 17 34 C 7.609375 34 0 26.390625 0 17 C 0 7.609375 7.609375 0 17 0 C 26.390625 0 34 7.609375 34 17 Z M 34 17 "/>
<path style=" stroke:none;fill-rule:nonzero;fill:rgb(100%,100%,100%);fill-opacity:1;" d="M 11.460938 24.730469 L 9.417969 24.730469 L 9.417969 10.503906 L 11.460938 10.503906 Z M 11.460938 24.730469 "/>
<path style=" stroke:none;fill-rule:nonzero;fill:rgb(100%,100%,100%);fill-opacity:1;" d="M 14.464844 10.503906 L 19.988281 10.503906 C 25.246094 10.503906 27.558594 14.265625 27.558594 17.625 C 27.558594 21.277344 24.703125 24.742188 20.015625 24.742188 L 14.464844 24.742188 Z M 16.507812 22.898438 L 19.761719 22.898438 C 24.398438 22.898438 25.460938 19.378906 25.460938 17.625 C 25.460938 14.769531 23.640625 12.351562 19.65625 12.351562 L 16.507812 12.351562 Z M 16.507812 22.898438 "/>
<path style=" stroke:none;fill-rule:nonzero;fill:rgb(100%,100%,100%);fill-opacity:1;" d="M 11.78125 7.542969 C 11.78125 8.273438 11.183594 8.886719 10.4375 8.886719 C 9.695312 8.886719 9.097656 8.273438 9.097656 7.542969 C 9.097656 6.800781 9.695312 6.203125 10.4375 6.203125 C 11.183594 6.203125 11.78125 6.8125 11.78125 7.542969 Z M 11.78125 7.542969 "/>
</g>
</svg>
