<?xml version="1.0" encoding="UTF-8"?>
<svg xmlns="http://www.w3.org/2000/svg" xmlns:xlink="http://www.w3.org/1999/xlink" width="32pt" height="32pt" viewBox="0 0 32 32" version="1.1">
<g id="surface1">
<path style=" stroke:none;fill-rule:nonzero;fill:rgb(65.098039%,80.784314%,22.352941%);fill-opacity:1;" d="M 32 16 C 32 24.835938 24.835938 32 16 32 C 7.164062 32 0 24.835938 0 16 C 0 7.164062 7.164062 0 16 0 C 24.835938 0 32 7.164062 32 16 Z M 32 16 "/>
<path style=" stroke:none;fill-rule:nonzero;fill:rgb(100%,100%,100%);fill-opacity:1;" d="M 10.789062 23.273438 L 8.863281 23.273438 L 8.863281 9.886719 L 10.789062 9.886719 Z M 10.789062 23.273438 "/>
<path style=" stroke:none;fill-rule:nonzero;fill:rgb(100%,100%,100%);fill-opacity:1;" d="M 13.613281 9.886719 L 18.8125 9.886719 C 23.761719 9.886719 25.9375 13.425781 25.9375 16.585938 C 25.9375 20.023438 23.25 23.289062 18.835938 23.289062 L 13.613281 23.289062 Z M 15.539062 21.550781 L 18.601562 21.550781 C 22.960938 21.550781 23.960938 18.238281 23.960938 16.585938 C 23.960938 13.898438 22.25 11.625 18.5 11.625 L 15.539062 11.625 Z M 15.539062 21.550781 "/>
<path style=" stroke:none;fill-rule:nonzero;fill:rgb(100%,100%,100%);fill-opacity:1;" d="M 11.085938 7.101562 C 11.085938 7.789062 10.523438 8.363281 9.824219 8.363281 C 9.125 8.363281 8.5625 7.789062 8.5625 7.101562 C 8.5625 6.398438 9.125 5.835938 9.824219 5.835938 C 10.523438 5.835938 11.085938 6.414062 11.085938 7.101562 Z M 11.085938 7.101562 "/>
</g>
</svg>
