<?xml version="1.0" encoding="UTF-8"?>
<svg xmlns="http://www.w3.org/2000/svg" xmlns:xlink="http://www.w3.org/1999/xlink" width="34pt" height="34pt" viewBox="0 0 34 34" version="1.1">
<g id="surface1">
<path style=" stroke:none;fill-rule:nonzero;fill:rgb(0%,0%,0%);fill-opacity:1;" d="M 19.335938 12.914062 L 16.570312 12.914062 L 16.570312 22.179688 L 19.429688 22.179688 C 23.5 22.179688 24.4375 19.085938 24.4375 17.542969 C 24.4375 15.039062 22.835938 12.914062 19.335938 12.914062 Z M 17 2.058594 C 8.746094 2.058594 2.058594 8.746094 2.058594 17 C 2.058594 25.253906 8.746094 31.941406 17 31.941406 C 25.253906 31.941406 31.941406 25.253906 31.941406 17 C 31.941406 8.746094 25.253906 2.058594 17 2.058594 Z M 12.132812 23.792969 L 10.332031 23.792969 L 10.332031 11.289062 L 12.132812 11.289062 Z M 11.234375 9.867188 C 10.585938 9.867188 10.054688 9.34375 10.054688 8.6875 C 10.054688 8.027344 10.578125 7.503906 11.234375 7.503906 C 11.886719 7.503906 12.417969 8.027344 12.417969 8.6875 C 12.410156 9.335938 11.886719 9.867188 11.234375 9.867188 Z M 19.648438 23.804688 L 14.769531 23.804688 L 14.769531 11.289062 L 19.625 11.289062 C 24.246094 11.289062 26.277344 14.589844 26.277344 17.542969 C 26.277344 20.757812 23.773438 23.804688 19.648438 23.804688 Z M 19.648438 23.804688 "/>
</g>
</svg>
