<?xml version="1.0" encoding="UTF-8"?>
<svg xmlns="http://www.w3.org/2000/svg" xmlns:xlink="http://www.w3.org/1999/xlink" width="48pt" height="48pt" viewBox="0 0 48 48" version="1.1">
<g id="surface1">
<path style=" stroke:none;fill-rule:nonzero;fill:rgb(65.098039%,80.784314%,22.352941%);fill-opacity:1;" d="M 48 24 C 48 37.257812 37.257812 48 24 48 C 10.742188 48 0 37.257812 0 24 C 0 10.742188 10.742188 0 24 0 C 37.257812 0 48 10.742188 48 24 Z M 48 24 "/>
<path style=" stroke:none;fill-rule:nonzero;fill:rgb(100%,100%,100%);fill-opacity:1;" d="M 16.179688 34.914062 L 13.292969 34.914062 L 13.292969 14.832031 L 16.179688 14.832031 Z M 16.179688 34.914062 "/>
<path style=" stroke:none;fill-rule:nonzero;fill:rgb(100%,100%,100%);fill-opacity:1;" d="M 20.417969 14.832031 L 28.21875 14.832031 C 35.644531 14.832031 38.90625 20.136719 38.90625 24.882812 C 38.90625 30.039062 34.875 34.929688 28.257812 34.929688 L 20.417969 34.929688 Z M 23.304688 32.324219 L 27.898438 32.324219 C 34.445312 32.324219 35.945312 27.355469 35.945312 24.882812 C 35.945312 20.851562 33.375 17.4375 27.75 17.4375 L 23.304688 17.4375 Z M 23.304688 32.324219 "/>
<path style=" stroke:none;fill-rule:nonzero;fill:rgb(100%,100%,100%);fill-opacity:1;" d="M 16.632812 10.648438 C 16.632812 11.679688 15.789062 12.542969 14.738281 12.542969 C 13.6875 12.542969 12.84375 11.679688 12.84375 10.648438 C 12.84375 9.601562 13.6875 8.757812 14.738281 8.757812 C 15.789062 8.757812 16.632812 9.617188 16.632812 10.648438 Z M 16.632812 10.648438 "/>
</g>
</svg>
