<?xml version="1.0" encoding="UTF-8"?>
<svg xmlns="http://www.w3.org/2000/svg" xmlns:xlink="http://www.w3.org/1999/xlink" width="46pt" height="46pt" viewBox="0 0 46 46" version="1.1">
<g id="surface1">
<path style=" stroke:none;fill-rule:nonzero;fill:rgb(65.098039%,80.784314%,22.352941%);fill-opacity:1;" d="M 46 23 C 46 35.703125 35.703125 46 23 46 C 10.296875 46 0 35.703125 0 23 C 0 10.296875 10.296875 0 23 0 C 35.703125 0 46 10.296875 46 23 Z M 46 23 "/>
<path style=" stroke:none;fill-rule:nonzero;fill:rgb(100%,100%,100%);fill-opacity:1;" d="M 15.507812 33.457031 L 12.738281 33.457031 L 12.738281 14.214844 L 15.507812 14.214844 Z M 15.507812 33.457031 "/>
<path style=" stroke:none;fill-rule:nonzero;fill:rgb(100%,100%,100%);fill-opacity:1;" d="M 19.566406 14.214844 L 27.042969 14.214844 C 34.160156 14.214844 37.285156 19.296875 37.285156 23.84375 C 37.285156 28.785156 33.421875 33.476562 27.078125 33.476562 L 19.566406 33.476562 Z M 22.335938 30.976562 L 26.738281 30.976562 C 33.007812 30.976562 34.445312 26.214844 34.445312 23.84375 C 34.445312 19.980469 31.984375 16.710938 26.59375 16.710938 L 22.335938 16.710938 Z M 22.335938 30.976562 "/>
<path style=" stroke:none;fill-rule:nonzero;fill:rgb(100%,100%,100%);fill-opacity:1;" d="M 15.9375 10.207031 C 15.9375 11.195312 15.128906 12.019531 14.125 12.019531 C 13.117188 12.019531 12.308594 11.195312 12.308594 10.207031 C 12.308594 9.199219 13.117188 8.390625 14.125 8.390625 C 15.128906 8.390625 15.9375 9.21875 15.9375 10.207031 Z M 15.9375 10.207031 "/>
</g>
</svg>
