<?xml version="1.0" encoding="UTF-8"?>
<svg xmlns="http://www.w3.org/2000/svg" xmlns:xlink="http://www.w3.org/1999/xlink" width="42pt" height="42pt" viewBox="0 0 42 42" version="1.1">
<g id="surface1">
<path style=" stroke:none;fill-rule:nonzero;fill:rgb(0%,0%,0%);fill-opacity:1;" d="M 23.886719 15.953125 L 20.46875 15.953125 L 20.46875 27.398438 L 24.003906 27.398438 C 29.03125 27.398438 30.1875 23.574219 30.1875 21.671875 C 30.1875 18.578125 28.210938 15.953125 23.886719 15.953125 Z M 21 2.542969 C 10.804688 2.542969 2.542969 10.804688 2.542969 21 C 2.542969 31.195312 10.804688 39.457031 21 39.457031 C 31.195312 39.457031 39.457031 31.195312 39.457031 21 C 39.457031 10.804688 31.195312 2.542969 21 2.542969 Z M 14.988281 29.390625 L 12.765625 29.390625 L 12.765625 13.945312 L 14.988281 13.945312 Z M 13.878906 12.191406 C 13.074219 12.191406 12.417969 11.542969 12.417969 10.730469 C 12.417969 9.917969 13.066406 9.269531 13.878906 9.269531 C 14.683594 9.269531 15.339844 9.917969 15.339844 10.730469 C 15.332031 11.535156 14.683594 12.191406 13.878906 12.191406 Z M 24.273438 29.40625 L 18.242188 29.40625 L 18.242188 13.945312 L 24.242188 13.945312 C 29.949219 13.945312 32.460938 18.023438 32.460938 21.671875 C 32.460938 25.644531 29.367188 29.40625 24.273438 29.40625 Z M 24.273438 29.40625 "/>
</g>
</svg>
