<?xml version="1.0" encoding="UTF-8"?>
<svg xmlns="http://www.w3.org/2000/svg" xmlns:xlink="http://www.w3.org/1999/xlink" width="48pt" height="48pt" viewBox="0 0 48 48" version="1.1">
<g id="surface1">
<path style=" stroke:none;fill-rule:nonzero;fill:rgb(0%,0%,0%);fill-opacity:1;" d="M 27.300781 18.234375 L 23.390625 18.234375 L 23.390625 31.3125 L 27.429688 31.3125 C 33.179688 31.3125 34.5 26.945312 34.5 24.769531 C 34.5 21.234375 32.242188 18.234375 27.300781 18.234375 Z M 24 2.90625 C 12.347656 2.90625 2.90625 12.347656 2.90625 24 C 2.90625 35.652344 12.347656 45.09375 24 45.09375 C 35.652344 45.09375 45.09375 35.652344 45.09375 24 C 45.09375 12.347656 35.652344 2.90625 24 2.90625 Z M 17.128906 33.589844 L 14.585938 33.589844 L 14.585938 15.9375 L 17.128906 15.9375 Z M 15.863281 13.929688 C 14.945312 13.929688 14.195312 13.191406 14.195312 12.261719 C 14.195312 11.335938 14.933594 10.59375 15.863281 10.59375 C 16.78125 10.59375 17.53125 11.335938 17.53125 12.261719 C 17.523438 13.179688 16.78125 13.929688 15.863281 13.929688 Z M 27.742188 33.609375 L 20.851562 33.609375 L 20.851562 15.9375 L 27.703125 15.9375 C 34.226562 15.9375 37.097656 20.597656 37.097656 24.769531 C 37.097656 29.304688 33.5625 33.609375 27.742188 33.609375 Z M 27.742188 33.609375 "/>
</g>
</svg>
