<?xml version="1.0" encoding="UTF-8"?>
<svg xmlns="http://www.w3.org/2000/svg" xmlns:xlink="http://www.w3.org/1999/xlink" width="42pt" height="42pt" viewBox="0 0 42 42" version="1.1">
<g id="surface1">
<path style=" stroke:none;fill-rule:nonzero;fill:rgb(65.098039%,80.784314%,22.352941%);fill-opacity:1;" d="M 42 21 C 42 32.597656 32.597656 42 21 42 C 9.402344 42 0 32.597656 0 21 C 0 9.402344 9.402344 0 21 0 C 32.597656 0 42 9.402344 42 21 Z M 42 21 "/>
<path style=" stroke:none;fill-rule:nonzero;fill:rgb(100%,100%,100%);fill-opacity:1;" d="M 14.160156 30.546875 L 11.632812 30.546875 L 11.632812 12.976562 L 14.160156 12.976562 Z M 14.160156 30.546875 "/>
<path style=" stroke:none;fill-rule:nonzero;fill:rgb(100%,100%,100%);fill-opacity:1;" d="M 17.867188 12.976562 L 24.691406 12.976562 C 31.1875 12.976562 34.042969 17.621094 34.042969 21.769531 C 34.042969 26.28125 30.515625 30.566406 24.722656 30.566406 L 17.867188 30.566406 Z M 20.394531 28.285156 L 24.414062 28.285156 C 30.136719 28.285156 31.449219 23.9375 31.449219 21.769531 C 31.449219 18.242188 29.203125 15.257812 24.28125 15.257812 L 20.394531 15.257812 Z M 20.394531 28.285156 "/>
<path style=" stroke:none;fill-rule:nonzero;fill:rgb(100%,100%,100%);fill-opacity:1;" d="M 14.550781 9.320312 C 14.550781 10.222656 13.8125 10.976562 12.894531 10.976562 C 11.976562 10.976562 11.238281 10.222656 11.238281 9.320312 C 11.238281 8.398438 11.976562 7.660156 12.894531 7.660156 C 13.8125 7.660156 14.550781 8.417969 14.550781 9.320312 Z M 14.550781 9.320312 "/>
</g>
</svg>
