<?xml version="1.0" encoding="UTF-8"?>
<svg xmlns="http://www.w3.org/2000/svg" xmlns:xlink="http://www.w3.org/1999/xlink" width="30pt" height="30pt" viewBox="0 0 30 30" version="1.1">
<g id="surface1">
<path style=" stroke:none;fill-rule:nonzero;fill:rgb(65.098039%,80.784314%,22.352941%);fill-opacity:1;" d="M 30 15 C 30 23.285156 23.285156 30 15 30 C 6.714844 30 0 23.285156 0 15 C 0 6.714844 6.714844 0 15 0 C 23.285156 0 30 6.714844 30 15 Z M 30 15 "/>
<path style=" stroke:none;fill-rule:nonzero;fill:rgb(100%,100%,100%);fill-opacity:1;" d="M 10.113281 21.820312 L 8.308594 21.820312 L 8.308594 9.269531 L 10.113281 9.269531 Z M 10.113281 21.820312 "/>
<path style=" stroke:none;fill-rule:nonzero;fill:rgb(100%,100%,100%);fill-opacity:1;" d="M 12.761719 9.269531 L 17.636719 9.269531 C 22.277344 9.269531 24.316406 12.585938 24.316406 15.550781 C 24.316406 18.773438 21.796875 21.832031 17.660156 21.832031 L 12.761719 21.832031 Z M 14.566406 20.203125 L 17.4375 20.203125 C 21.527344 20.203125 22.464844 17.097656 22.464844 15.550781 C 22.464844 13.03125 20.859375 10.898438 17.34375 10.898438 L 14.566406 10.898438 Z M 14.566406 20.203125 "/>
<path style=" stroke:none;fill-rule:nonzero;fill:rgb(100%,100%,100%);fill-opacity:1;" d="M 10.394531 6.65625 C 10.394531 7.300781 9.867188 7.839844 9.210938 7.839844 C 8.554688 7.839844 8.027344 7.300781 8.027344 6.65625 C 8.027344 6 8.554688 5.472656 9.210938 5.472656 C 9.867188 5.472656 10.394531 6.011719 10.394531 6.65625 Z M 10.394531 6.65625 "/>
</g>
</svg>
