<?xml version="1.0" encoding="utf-8"?>
<!-- Generator: Adobe Illustrator 22.1.0, SVG Export Plug-In . SVG Version: 6.00 Build 0)  -->
<svg version="1.1" id="Layer_1" xmlns="http://www.w3.org/2000/svg" xmlns:xlink="http://www.w3.org/1999/xlink" x="0px" y="0px"
	 viewBox="0 0 512 512" style="enable-background:new 0 0 512 512;" xml:space="preserve">
<g>
	<path d="M291.2,194.5h-41.7V334h43.1c61.3,0,75.4-46.6,75.4-69.8C368,226.5,343.9,194.5,291.2,194.5z M256,31
		C131.7,31,31,131.7,31,256s100.7,225,225,225s225-100.7,225-225S380.3,31,256,31z M182.7,358.3h-27.1V170h27.1V358.3z M169.2,148.6
		c-9.8,0-17.8-7.9-17.8-17.8s7.9-17.8,17.8-17.8c9.8,0,17.8,7.9,17.8,17.8v0C186.9,140.6,179,148.6,169.2,148.6L169.2,148.6z
		 M295.9,358.5h-73.5V170h73.1c69.6,0,100.2,49.7,100.2,94.2C395.7,312.6,358,358.5,295.9,358.5z"/>
</g>
</svg>
