<?xml version="1.0" encoding="UTF-8"?>
<svg xmlns="http://www.w3.org/2000/svg" xmlns:xlink="http://www.w3.org/1999/xlink" width="38pt" height="38pt" viewBox="0 0 38 38" version="1.1">
<g id="surface1">
<path style=" stroke:none;fill-rule:nonzero;fill:rgb(0%,0%,0%);fill-opacity:1;" d="M 21.613281 14.4375 L 18.515625 14.4375 L 18.515625 24.789062 L 21.714844 24.789062 C 26.265625 24.789062 27.3125 21.332031 27.3125 19.609375 C 27.3125 16.8125 25.523438 14.4375 21.613281 14.4375 Z M 19 2.300781 C 9.773438 2.300781 2.300781 9.773438 2.300781 19 C 2.300781 28.226562 9.773438 35.699219 19 35.699219 C 28.226562 35.699219 35.699219 28.226562 35.699219 19 C 35.699219 9.773438 28.226562 2.300781 19 2.300781 Z M 13.558594 26.59375 L 11.546875 26.59375 L 11.546875 12.617188 L 13.558594 12.617188 Z M 12.558594 11.027344 C 11.832031 11.027344 11.238281 10.441406 11.238281 9.707031 C 11.238281 8.972656 11.824219 8.386719 12.558594 8.386719 C 13.285156 8.386719 13.878906 8.972656 13.878906 9.707031 C 13.871094 10.433594 13.285156 11.027344 12.558594 11.027344 Z M 21.960938 26.609375 L 16.507812 26.609375 L 16.507812 12.617188 L 21.929688 12.617188 C 27.097656 12.617188 29.367188 16.304688 29.367188 19.609375 C 29.367188 23.199219 26.570312 26.609375 21.960938 26.609375 Z M 21.960938 26.609375 "/>
</g>
</svg>
