<?xml version="1.0" encoding="UTF-8"?>
<svg xmlns="http://www.w3.org/2000/svg" xmlns:xlink="http://www.w3.org/1999/xlink" width="38pt" height="38pt" viewBox="0 0 38 38" version="1.1">
<g id="surface1">
<path style=" stroke:none;fill-rule:nonzero;fill:rgb(65.098039%,80.784314%,22.352941%);fill-opacity:1;" d="M 38 19 C 38 29.496094 29.496094 38 19 38 C 8.503906 38 0 29.496094 0 19 C 0 8.503906 8.503906 0 19 0 C 29.496094 0 38 8.503906 38 19 Z M 38 19 "/>
<path style=" stroke:none;fill-rule:nonzero;fill:rgb(100%,100%,100%);fill-opacity:1;" d="M 12.808594 27.640625 L 10.523438 27.640625 L 10.523438 11.742188 L 12.808594 11.742188 Z M 12.808594 27.640625 "/>
<path style=" stroke:none;fill-rule:nonzero;fill:rgb(100%,100%,100%);fill-opacity:1;" d="M 16.164062 11.742188 L 22.339844 11.742188 C 28.21875 11.742188 30.800781 15.941406 30.800781 19.699219 C 30.800781 23.78125 27.609375 27.652344 22.371094 27.652344 L 16.164062 27.652344 Z M 18.449219 25.589844 L 22.085938 25.589844 C 27.269531 25.589844 28.457031 21.65625 28.457031 19.699219 C 28.457031 16.507812 26.421875 13.804688 21.96875 13.804688 L 18.449219 13.804688 Z M 18.449219 25.589844 "/>
<path style=" stroke:none;fill-rule:nonzero;fill:rgb(100%,100%,100%);fill-opacity:1;" d="M 13.167969 8.429688 C 13.167969 9.246094 12.5 9.929688 11.667969 9.929688 C 10.835938 9.929688 10.167969 9.246094 10.167969 8.429688 C 10.167969 7.601562 10.835938 6.933594 11.667969 6.933594 C 12.5 6.933594 13.167969 7.613281 13.167969 8.429688 Z M 13.167969 8.429688 "/>
</g>
</svg>
